<svg xmlns="http://www.w3.org/2000/svg" viewBox="0 0 854.83 139.24"><defs><style>.cls-1{fill:#fff;}</style></defs><g id="Layer_2" data-name="Layer 2"><g id="Layer_1-2" data-name="Layer 1"><path class="cls-1" d="M0,2.34H19V39.62C23.09,35.82,29,31.7,37.28,31.7c20,0,31.34,13.53,31.34,31.67v42.55H49.48V66c0-11.55-5.6-18.15-14.84-18.15-9.07,0-15.51,7.59-15.51,19.14v38.92H0Z"/><path class="cls-1" d="M79,69.8a37.94,37.94,0,1,1,37.78,38.1A37.88,37.88,0,0,1,79,69.8Zm38.11,20a19.3,19.3,0,1,0-19.3-19.3A19.33,19.33,0,0,0,117.15,89.76Z"/><path class="cls-1" d="M163.53,69.8a38,38,0,1,1,76,0c0,21-16,38.1-36.62,38.1A31.41,31.41,0,0,1,182.66,100v39.25h-19Zm38.1,20a19.3,19.3,0,1,0-19.3-19.3A19.32,19.32,0,0,0,201.63,89.76Z"/><path class="cls-1" d="M305.12,2.34h19V69.8a38,38,0,1,1-76,0c0-21.11,16-38.1,36.62-38.1a32.3,32.3,0,0,1,20.45,7.75ZM286,89.76a19.3,19.3,0,1,0-19.3-19.3A19.22,19.22,0,0,0,286,89.76Z"/><path class="cls-1" d="M335.85,65.18c0-17.32,13.19-31.83,34.63-31.83v17c-9.23,0-15.83,5.61-15.83,17.15v38.43h-18.8Z"/><path class="cls-1" d="M382.1,33.35h19v72.57h-19Zm.33-16.17a9.49,9.49,0,1,1,19,0,9.49,9.49,0,0,1-19,0Z"/><path class="cls-1" d="M408.33,33.35H430.6l18,38.76L468,33.35h20.62l-40.08,77Z"/><path class="cls-1" d="M555.34,97.68a43.7,43.7,0,0,1-27.88,9.73c-22.76,0-41.07-16.5-41.07-37.77s16.66-37.78,39.42-37.78,37.61,16.5,37.61,37.78v5.44H505.36c2.64,9.57,11.88,16.33,22.1,16.33a21.9,21.9,0,0,0,16.66-7.09ZM543.46,59.57a18.82,18.82,0,0,0-17.65-11.71A20.56,20.56,0,0,0,507,59.57Z"/><rect class="cls-1" x="577.66" y="33.38" width="28.43" height="10.78"/><rect class="cls-1" x="604.64" y="53.96" width="29.5" height="10.78"/><polygon class="cls-1" points="673.65 95.15 673.65 105.83 694.89 105.79 687.78 95.15 673.65 95.15"/><polygon class="cls-1" points="620.36 105.93 660.79 105.85 660.79 95.15 620.36 95.14 620.36 105.93"/><rect class="cls-1" x="593.27" y="95.12" width="12.85" height="10.78"/><path class="cls-1" d="M801.86,70.77c.87-1.26.88-1.26,2.33-.85a58.51,58.51,0,0,0,14,1.91,64.29,64.29,0,0,0,12.33-.31,35.87,35.87,0,0,0,20.69-10.6,11.53,11.53,0,0,0,3.4-10.69,10.45,10.45,0,0,0-7.05-8.43q-14-4.95-28.08-9.85l-16.63-5.84a7.41,7.41,0,0,1-1.77-.77A215.15,215.15,0,0,0,780.39,12a87.14,87.14,0,0,0-21.19-8.6,107.41,107.41,0,0,0-22-2.63C733.09.58,728.92.5,724.76.36c-3.2-.11-6.39-.34-9.58-.36a7.47,7.47,0,0,0-7.54,8.47,30.27,30.27,0,0,0,1.16,4.94c2.35,7.8,7.12,13.49,14.77,16.59a46.77,46.77,0,0,0,14.72,3.07c5.54.35,11.08.48,16.62.73,3.61.16,7.22.2,10.81.55,4.84.48,9.65,1.19,14.48,1.83,1.3.17,2.59.43,3.91.65,0,.11-.05.17-.08.19-.72.39-1.44.8-2.17,1.17a56.52,56.52,0,0,1-28.57,6.14c-6.69-.27-13.12-1.85-19.61-3.46-14.5-3.59-21.09-4.48-34.6-6.5-2.65-.4-8.61-.64-14.1-.78l.14,10.58H664.2V33.53L616,33.37V44.16h41.37L663,54,646.5,54V64.74l21.67.2c2.09,3.31,4.17,6.55,6.17,9.6h-20v10.7l27,0c3,4.53,5.31,8.06,6.37,10l19.95.21.55,10.42,7.53-.15c9.63-.36,15.4-1.8,25.42-3.6a11.49,11.49,0,0,0,2.55-1.17l.11.13c-.23.39-.45.79-.68,1.19a23.62,23.62,0,0,0-2.59,5.89c-.83,3.47-.18,6.51,2.68,8.84a10,10,0,0,0,6.11,2,35.19,35.19,0,0,0,10.55-1.4c13-3.45,25.86-7.19,38.46-11.88a81.72,81.72,0,0,1,13.79-4.24,12.72,12.72,0,0,1,9.6,1.7,44.12,44.12,0,0,0,6.08,3.21,23.63,23.63,0,0,0,8.57,2.34c3.56.13,6.88-.56,9.56-3.06s3.93-5.58,3-9.26a8.33,8.33,0,0,0-4.8-5.44,57.53,57.53,0,0,0-7-2.72,103.62,103.62,0,0,1-12.62-4.74A33,33,0,0,0,810,80.3a39,39,0,0,0-11.34,1.92l-2.46.78c.08-.34.12-.55.18-.75A41.46,41.46,0,0,1,801.86,70.77Zm-128.21-6V54L707.11,54V64.74Zm52.76,20.4H689.2V74.55h37.21Z"/><polygon class="cls-1" points="641.47 74.55 614.68 74.54 614.68 85.33 641.47 85.28 641.47 74.55"/><rect class="cls-1" x="580.42" y="53.96" width="12.85" height="10.78"/></g></g></svg>