<svg xmlns="http://www.w3.org/2000/svg" viewBox="0 0 563.42 257.29"><defs><style>.cls-1{fill:#5c8d8a;}.cls-2{fill:#2b3d59;}.cls-3{fill:#f44232;}</style></defs><g id="Layer_2" data-name="Layer 2"><g id="Layer_1-2" data-name="Layer 1"><path class="cls-1" d="M0,120.38H19v37.28c4.12-3.79,10.06-7.92,18.31-7.92,20,0,31.34,13.53,31.34,31.67V224H49.48V184.05c0-11.54-5.6-18.14-14.84-18.14-9.07,0-15.51,7.59-15.51,19.13V224H0Z"/><path class="cls-1" d="M79,187.85A37.94,37.94,0,1,1,116.82,226,37.88,37.88,0,0,1,79,187.85Zm38.11,20a19.3,19.3,0,1,0-19.3-19.29A19.32,19.32,0,0,0,117.15,207.8Z"/><path class="cls-1" d="M163.53,187.85a38,38,0,1,1,76,0c0,20.94-16,38.1-36.62,38.1A31.42,31.42,0,0,1,182.66,218v39.26h-19Zm38.1,20a19.3,19.3,0,1,0-19.3-19.29A19.32,19.32,0,0,0,201.63,207.8Z"/><path class="cls-2" d="M305.12,120.38h19v67.47a38,38,0,1,1-76,0c0-21.12,16-38.11,36.62-38.11a32.36,32.36,0,0,1,20.45,7.75ZM286,207.8a19.3,19.3,0,1,0-19.3-19.29A19.21,19.21,0,0,0,286,207.8Z"/><path class="cls-2" d="M335.85,183.23c0-17.32,13.19-31.84,34.63-31.84v17c-9.23,0-15.83,5.61-15.83,17.16V224h-18.8Z"/><path class="cls-2" d="M382.1,151.39h19V224h-19Zm.33-16.16a9.49,9.49,0,1,1,19,0,9.49,9.49,0,0,1-19,0Z"/><path class="cls-2" d="M408.33,151.39H430.6l18,38.77L468,151.39h20.62l-40.08,77Z"/><path class="cls-2" d="M555.34,215.72a43.7,43.7,0,0,1-27.88,9.73c-22.76,0-41.07-16.49-41.07-37.77s16.66-37.77,39.42-37.77,37.61,16.49,37.61,37.77v5.44H505.36c2.64,9.57,11.88,16.33,22.1,16.33a21.9,21.9,0,0,0,16.66-7.09Zm-11.88-38.1a18.81,18.81,0,0,0-17.65-11.71A20.56,20.56,0,0,0,507,177.62Z"/><rect class="cls-3" x="145.13" y="27.88" width="23.74" height="9"/><rect class="cls-3" x="167.66" y="45.06" width="24.64" height="9"/><polygon class="cls-3" points="225.29 79.46 225.29 88.38 243.03 88.35 237.09 79.46 225.29 79.46"/><polygon class="cls-3" points="180.79 88.46 214.56 88.4 214.56 79.46 180.79 79.46 180.79 88.46"/><rect class="cls-3" x="158.17" y="79.44" width="10.74" height="9"/><path class="cls-3" d="M332.37,59.1c.72-1.05.73-1.05,1.94-.71A49.08,49.08,0,0,0,346,60a54.45,54.45,0,0,0,10.29-.26,30,30,0,0,0,17.28-8.85A9.65,9.65,0,0,0,376.41,42a8.75,8.75,0,0,0-5.89-7.05q-11.72-4.12-23.45-8.22L333.18,21.8a6.13,6.13,0,0,1-1.48-.64A178.92,178.92,0,0,0,314.44,10a72.63,72.63,0,0,0-17.7-7.19A89.76,89.76,0,0,0,278.41.62c-3.48-.13-7-.2-10.43-.32-2.67-.09-5.34-.28-8-.3a6.23,6.23,0,0,0-6.29,7.07,25.54,25.54,0,0,0,1,4.13c2,6.51,6,11.27,12.33,13.85a38.75,38.75,0,0,0,12.3,2.56c4.62.3,9.25.41,13.88.62,3,.13,6,.16,9,.46,4,.39,8.07,1,12.09,1.52,1.09.14,2.17.36,3.27.55,0,.09,0,.14-.07.16-.6.33-1.2.66-1.81,1A47.33,47.33,0,0,1,291.8,37c-5.59-.22-11-1.55-16.37-2.89-12.11-3-17.61-3.74-28.9-5.43-2.21-.33-7.19-.53-11.77-.65l.11,8.83H217.41V28l-40.28-.13v9h34.56l4.7,8.21-13.77,0v9l18.1.16c1.74,2.77,3.48,5.47,5.15,8H209.15V71.2l22.58,0c2.51,3.79,4.44,6.73,5.33,8.31l16.65.18.46,8.7,6.29-.13c8-.29,12.86-1.5,21.23-3a9.27,9.27,0,0,0,2.13-1l.09.1-.56,1a19.46,19.46,0,0,0-2.17,4.92c-.69,2.89-.15,5.44,2.24,7.38a8.34,8.34,0,0,0,5.1,1.67,29.81,29.81,0,0,0,8.81-1.17c10.84-2.88,21.6-6,32.12-9.93A68.3,68.3,0,0,1,341,84.67a10.63,10.63,0,0,1,8,1.41,36.66,36.66,0,0,0,5.07,2.69,20,20,0,0,0,7.16,2,10.54,10.54,0,0,0,8-2.56,7.47,7.47,0,0,0,2.47-7.73,6.92,6.92,0,0,0-4-4.54,47.49,47.49,0,0,0-5.8-2.28,86.21,86.21,0,0,1-10.54-4,27.43,27.43,0,0,0-12.17-2.6,32.37,32.37,0,0,0-9.47,1.6l-2.06.65c.07-.28.1-.45.15-.62A34.48,34.48,0,0,1,332.37,59.1Zm-107.08-5v-9l28,0v9Zm44.07,17H238.28V62.26h31.08Z"/><polygon class="cls-3" points="198.42 62.25 176.04 62.25 176.04 71.26 198.42 71.22 198.42 62.25"/><rect class="cls-3" x="147.43" y="45.06" width="10.74" height="9"/></g></g></svg>